<?xml version="1.0" standalone="no"?>
<!DOCTYPE svg PUBLIC "-//W3C//DTD SVG 20010904//EN"
 "http://www.w3.org/TR/2001/REC-SVG-20010904/DTD/svg10.dtd">
<svg version="1.0" xmlns="http://www.w3.org/2000/svg"
 width="349.000000pt" height="412.000000pt" viewBox="0 0 349.000000 412.000000"
 preserveAspectRatio="xMidYMid meet">
<metadata>
Created by potrace 1.16, written by Peter Selinger 2001-2019
</metadata>
<g transform="translate(0.000000,412.000000) scale(0.100000,-0.100000)"
fill="#fed03c" stroke="none">
<path d="M1625 3529 c-225 -32 -469 -169 -625 -349 -169 -197 -247 -396 -257
-661 -19 -472 178 -770 679 -1025 115 -58 128 -63 136 -47 5 10 47 108 92 218
45 110 97 236 116 280 l33 80 -52 8 c-78 11 -170 59 -236 122 -267 254 -124
696 244 757 187 31 385 -79 467 -259 63 -140 46 -312 -43 -437 -46 -65 -141
-140 -199 -157 l-38 -12 -207 -581 c-114 -319 -210 -586 -212 -593 -5 -13 12
-19 322 -128 121 -43 261 -92 311 -110 l92 -33 66 181 c36 100 122 340 191
532 70 193 155 429 190 525 128 354 165 507 165 675 0 277 -93 489 -309 705
-177 176 -344 268 -560 305 -90 16 -269 18 -366 4z"/>
<path d="M1768 2614 l-3 -166 93 -92 c51 -50 97 -92 103 -94 5 -2 12 3 15 12
4 10 -21 45 -75 104 l-81 89 0 156 0 157 -25 0 -24 0 -3 -166z"/>
</g>
</svg>
